<svg width="49" height="48" viewBox="0 0 49 48" fill="none" xmlns="http://www.w3.org/2000/svg">
<rect width="49" height="48" rx="10" fill="#236DEC"/>
<path d="M26.6111 30.3529H34M15 30.3529H17.1111M17.1111 30.3529C17.1111 31.8149 18.2926 33 19.75 33C21.2074 33 22.3889 31.8149 22.3889 30.3529C22.3889 28.891 21.2074 27.7059 19.75 27.7059C18.2926 27.7059 17.1111 28.891 17.1111 30.3529ZM32.9444 24H34M15 24H22.3889M25.5556 17.6471H34M25.5556 17.6471C25.5556 16.1851 24.3741 15 22.9167 15C21.4593 15 20.2778 16.1851 20.2778 17.6471C20.2778 19.109 21.4593 20.2941 22.9167 20.2941C24.3741 20.2941 25.5556 19.109 25.5556 17.6471ZM15 17.6471H16.0556M29.25 26.6471C27.7926 26.6471 26.6111 25.4619 26.6111 24C26.6111 22.5381 27.7926 21.3529 29.25 21.3529C30.7074 21.3529 31.8889 22.5381 31.8889 24C31.8889 25.4619 30.7074 26.6471 29.25 26.6471Z" stroke="white" stroke-width="2" stroke-linecap="round" stroke-linejoin="round"/>
</svg>
