<svg width="84" height="122" viewBox="0 0 84 122" fill="none" xmlns="http://www.w3.org/2000/svg">
<path d="M31.2188 6.9375C30.5802 6.9375 30.0625 7.45518 30.0625 8.09375V26.5938C30.0625 28.5095 28.5095 30.0625 26.5938 30.0625H8.09375C7.45518 30.0625 6.9375 30.5802 6.9375 31.2188V52.0312C6.9375 52.67 7.45518 53.1875 8.09375 53.1875H26.5938C28.5095 53.1875 30.0625 54.7406 30.0625 56.6562V75.1562C30.0625 75.795 30.5802 76.3125 31.2188 76.3125H52.0312C52.67 76.3125 53.1875 75.795 53.1875 75.1562V56.6562C53.1875 54.7406 54.7406 53.1875 56.6562 53.1875H75.1562C75.795 53.1875 76.3125 52.67 76.3125 52.0312V31.2188C76.3125 30.5802 75.795 30.0625 75.1562 30.0625H56.6562C54.7406 30.0625 53.1875 28.5095 53.1875 26.5938V8.09375C53.1875 7.45518 52.67 6.9375 52.0312 6.9375H31.2188ZM23.125 8.09375C23.125 3.62369 26.7487 0 31.2188 0H52.0312C56.5013 0 60.125 3.62369 60.125 8.09375V23.125H75.1562C79.6263 23.125 83.25 26.7487 83.25 31.2188V52.0312C83.25 56.5013 79.6263 60.125 75.1562 60.125H60.125V75.1562C60.125 79.6263 56.5013 83.25 52.0312 83.25H31.2188C26.7487 83.25 23.125 79.6263 23.125 75.1562V60.125H8.09375C3.62369 60.125 0 56.5013 0 52.0312V31.2188C0 26.7487 3.62369 23.125 8.09375 23.125H23.125V8.09375Z" fill="white"/>
<path d="M6.585 116.25V103.05H10.925L14.605 112.99H14.705L18.305 103.05H22.445V116.25H19.705L19.885 105.97H19.665L15.665 116.25H13.265L9.325 105.97H9.105L9.285 116.25H6.585ZM30.1141 116.53C29.2474 116.53 28.4741 116.41 27.7941 116.17C27.1274 115.93 26.5607 115.583 26.0941 115.13C25.6274 114.677 25.2674 114.117 25.0141 113.45C24.7741 112.783 24.6541 112.03 24.6541 111.19C24.6541 110.363 24.7674 109.603 24.9941 108.91C25.2341 108.203 25.5807 107.597 26.0341 107.09C26.4874 106.57 27.0407 106.17 27.6941 105.89C28.3474 105.61 29.0874 105.47 29.9141 105.47C30.7141 105.47 31.4274 105.603 32.0541 105.87C32.6807 106.123 33.2007 106.51 33.6141 107.03C34.0407 107.55 34.3474 108.19 34.5341 108.95C34.7341 109.697 34.8074 110.557 34.7541 111.53L26.5141 111.61V110.03L33.0941 109.97L32.0741 110.77C32.1674 110.063 32.1207 109.483 31.9341 109.03C31.7474 108.577 31.4741 108.243 31.1141 108.03C30.7674 107.817 30.3807 107.71 29.9541 107.71C29.4474 107.71 29.0007 107.843 28.6141 108.11C28.2274 108.377 27.9274 108.77 27.7141 109.29C27.5007 109.797 27.3941 110.41 27.3941 111.13C27.3941 112.263 27.6407 113.097 28.1341 113.63C28.6407 114.163 29.3007 114.43 30.1141 114.43C30.4874 114.43 30.8007 114.383 31.0541 114.29C31.3207 114.183 31.5341 114.05 31.6941 113.89C31.8674 113.73 32.0007 113.55 32.0941 113.35C32.2007 113.15 32.2874 112.95 32.3541 112.75L34.8541 113.29C34.7341 113.783 34.5541 114.23 34.3141 114.63C34.0874 115.017 33.7807 115.357 33.3941 115.65C33.0074 115.93 32.5407 116.143 31.9941 116.29C31.4607 116.45 30.8341 116.53 30.1141 116.53ZM40.8119 116.53C39.9319 116.53 39.1585 116.303 38.4919 115.85C37.8385 115.397 37.3319 114.757 36.9719 113.93C36.6119 113.103 36.4319 112.123 36.4319 110.99C36.4319 109.923 36.5919 108.977 36.9119 108.15C37.2319 107.323 37.7052 106.677 38.3319 106.21C38.9585 105.743 39.7385 105.51 40.6719 105.51C41.3519 105.51 41.9252 105.637 42.3919 105.89C42.8585 106.143 43.2385 106.517 43.5319 107.01C43.8385 107.49 44.0785 108.07 44.2519 108.75H44.7119C44.6185 108.323 44.5319 107.91 44.4519 107.51C44.3852 107.097 44.3319 106.703 44.2919 106.33C44.2519 105.957 44.2319 105.63 44.2319 105.35V101.95H47.1119V111.09V116.25H44.7119V113.21H44.3119C44.1652 113.957 43.9385 114.577 43.6319 115.07C43.3252 115.563 42.9319 115.93 42.4519 116.17C41.9852 116.41 41.4385 116.53 40.8119 116.53ZM41.7719 114.17C42.2119 114.17 42.5852 114.077 42.8919 113.89C43.1985 113.703 43.4519 113.463 43.6519 113.17C43.8519 112.863 43.9985 112.537 44.0919 112.19C44.1852 111.83 44.2319 111.497 44.2319 111.19V110.81C44.2319 110.557 44.1919 110.297 44.1119 110.03C44.0452 109.75 43.9452 109.477 43.8119 109.21C43.6785 108.943 43.5119 108.71 43.3119 108.51C43.1119 108.297 42.8785 108.13 42.6119 108.01C42.3452 107.89 42.0519 107.83 41.7319 107.83C41.2519 107.83 40.8452 107.963 40.5119 108.23C40.1785 108.497 39.9185 108.87 39.7319 109.35C39.5452 109.817 39.4519 110.363 39.4519 110.99C39.4519 111.63 39.5452 112.19 39.7319 112.67C39.9319 113.15 40.2052 113.523 40.5519 113.79C40.8985 114.043 41.3052 114.17 41.7719 114.17ZM49.7653 116.25V105.75H52.6453V116.25H49.7653ZM51.2253 104.17C50.6653 104.17 50.232 104.057 49.9253 103.83C49.632 103.59 49.4853 103.243 49.4853 102.79C49.4853 102.323 49.632 101.97 49.9253 101.73C50.232 101.49 50.6653 101.37 51.2253 101.37C51.7986 101.37 52.232 101.49 52.5253 101.73C52.832 101.97 52.9853 102.323 52.9853 102.79C52.9853 103.23 52.832 103.57 52.5253 103.81C52.232 104.05 51.7986 104.17 51.2253 104.17ZM59.4722 119.91C58.3255 119.91 57.3789 119.817 56.6322 119.63C55.8989 119.457 55.3589 119.197 55.0122 118.85C54.6655 118.503 54.4922 118.07 54.4922 117.55C54.4922 116.937 54.7322 116.437 55.2122 116.05C55.7055 115.663 56.4255 115.43 57.3722 115.35V114.95C56.6522 114.95 56.0989 114.877 55.7122 114.73C55.3255 114.57 55.1322 114.297 55.1322 113.91C55.1322 113.537 55.3189 113.203 55.6922 112.91C56.0789 112.617 56.7122 112.383 57.5922 112.21V111.81C56.7655 111.757 56.1189 111.49 55.6522 111.01C55.1855 110.53 54.9522 109.91 54.9522 109.15C54.9522 108.483 55.1389 107.89 55.5122 107.37C55.8855 106.837 56.4389 106.417 57.1722 106.11C57.9189 105.79 58.8322 105.63 59.9122 105.63H65.2322V107.83L61.9322 107.37V107.83C62.7855 107.95 63.3989 108.163 63.7722 108.47C64.1589 108.777 64.3522 109.203 64.3522 109.75C64.3522 110.297 64.1722 110.777 63.8122 111.19C63.4522 111.603 62.9389 111.93 62.2722 112.17C61.6189 112.397 60.8322 112.51 59.9122 112.51C59.7389 112.51 59.5522 112.503 59.3522 112.49C59.1522 112.477 58.8189 112.443 58.3522 112.39C58.0989 112.577 57.8989 112.743 57.7522 112.89C57.6189 113.023 57.5522 113.15 57.5522 113.27C57.5522 113.363 57.5989 113.443 57.6922 113.51C57.7989 113.577 57.9322 113.623 58.0922 113.65C58.2655 113.677 58.4389 113.69 58.6122 113.69H61.6122C61.8789 113.69 62.2255 113.71 62.6522 113.75C63.0789 113.777 63.5055 113.877 63.9322 114.05C64.3589 114.223 64.7189 114.503 65.0122 114.89C65.3055 115.263 65.4522 115.803 65.4522 116.51C65.4522 117.283 65.2322 117.923 64.7922 118.43C64.3655 118.937 63.7055 119.31 62.8122 119.55C61.9322 119.79 60.8189 119.91 59.4722 119.91ZM59.7922 117.61C60.6055 117.61 61.2389 117.563 61.6922 117.47C62.1455 117.39 62.4655 117.25 62.6522 117.05C62.8522 116.863 62.9522 116.623 62.9522 116.33C62.9522 116.063 62.8922 115.857 62.7722 115.71C62.6655 115.563 62.5189 115.463 62.3322 115.41C62.1589 115.343 61.9789 115.303 61.7922 115.29C61.6189 115.263 61.4655 115.25 61.3322 115.25H58.8122C58.2522 115.303 57.8455 115.457 57.5922 115.71C57.3522 115.95 57.2322 116.23 57.2322 116.55C57.2322 116.843 57.3255 117.063 57.5122 117.21C57.6989 117.357 57.9789 117.457 58.3522 117.51C58.7389 117.577 59.2189 117.61 59.7922 117.61ZM59.7522 111.01C60.3922 111.01 60.8722 110.857 61.1922 110.55C61.5122 110.23 61.6722 109.817 61.6722 109.31C61.6722 108.777 61.5055 108.337 61.1722 107.99C60.8522 107.643 60.3789 107.47 59.7522 107.47C59.1389 107.47 58.6589 107.643 58.3122 107.99C57.9655 108.323 57.7922 108.757 57.7922 109.29C57.7922 109.623 57.8655 109.923 58.0122 110.19C58.1722 110.443 58.3989 110.643 58.6922 110.79C58.9855 110.937 59.3389 111.01 59.7522 111.01ZM71.8495 116.53C70.7962 116.53 69.8695 116.323 69.0695 115.91C68.2695 115.483 67.6429 114.863 67.1895 114.05C66.7362 113.223 66.5095 112.197 66.5095 110.97C66.5095 109.743 66.7362 108.723 67.1895 107.91C67.6562 107.097 68.2895 106.49 69.0895 106.09C69.9029 105.677 70.8229 105.47 71.8495 105.47C72.9029 105.47 73.8295 105.677 74.6295 106.09C75.4429 106.503 76.0762 107.123 76.5295 107.95C76.9962 108.763 77.2295 109.783 77.2295 111.01C77.2295 112.25 76.9895 113.283 76.5095 114.11C76.0429 114.923 75.4029 115.53 74.5895 115.93C73.7895 116.33 72.8762 116.53 71.8495 116.53ZM71.9495 114.39C72.4695 114.39 72.9029 114.27 73.2495 114.03C73.6095 113.79 73.8762 113.43 74.0495 112.95C74.2362 112.457 74.3295 111.863 74.3295 111.17C74.3295 110.437 74.2295 109.817 74.0295 109.31C73.8429 108.79 73.5629 108.397 73.1895 108.13C72.8162 107.85 72.3429 107.71 71.7695 107.71C71.2762 107.71 70.8495 107.83 70.4895 108.07C70.1295 108.297 69.8562 108.657 69.6695 109.15C69.4829 109.63 69.3895 110.223 69.3895 110.93C69.3895 112.063 69.6162 112.923 70.0695 113.51C70.5229 114.097 71.1495 114.39 71.9495 114.39Z" fill="white"/>
</svg>
