<svg width="44" height="44" viewBox="0 0 44 44" fill="none" xmlns="http://www.w3.org/2000/svg">
<g filter="url(#filter0_dd_2_513)">
<rect x="4" y="3" width="36" height="36" rx="18" fill="white" shape-rendering="crispEdges"/>
<path d="M16.696 22.479L17.1222 22.7405L17.1234 22.7386L16.696 22.479ZM15.7641 23.9979L15.338 23.7364L15.3379 23.7365L15.7641 23.9979ZM16.6393 26.3279L16.4817 26.8024L16.4835 26.803L16.6393 26.3279ZM27.3926 26.3279L27.2384 25.8523L27.2369 25.8528L27.3926 26.3279ZM28.2678 23.9979L28.6944 23.7371L28.694 23.7364L28.2678 23.9979ZM27.3359 22.479L26.9048 22.7325L26.9097 22.7405L27.3359 22.479ZM23.5192 14.002L23.3822 14.4828C23.5655 14.5351 23.7626 14.4785 23.8904 14.337C24.0181 14.1954 24.0542 13.9936 23.9835 13.8165L23.5192 14.002ZM22.7413 13.8429L22.6804 14.3392L22.6822 14.3394L22.7413 13.8429ZM20.5209 14.002L20.0566 13.8165C19.9858 13.9936 20.022 14.1955 20.1498 14.337C20.2776 14.4786 20.4747 14.5351 20.6581 14.4828L20.5209 14.002ZM20.3021 28.3002L20.6523 27.9433L20.6523 27.9433L20.3021 28.3002ZM22.02 13.7713V13.2713C19.0706 13.2713 16.6579 15.6255 16.6579 18.5427H17.1579H17.6579C17.6579 16.1955 19.605 14.2713 22.02 14.2713V13.7713ZM17.1579 18.5427H16.6579V20.8409H17.1579H17.6579V18.5427H17.1579ZM17.1579 20.8409H16.6579C16.6579 21.022 16.6166 21.28 16.5401 21.5507C16.4636 21.8211 16.3634 22.0636 16.2687 22.2194L16.696 22.479L17.1234 22.7386C17.2799 22.4809 17.4107 22.1469 17.5023 21.8229C17.5939 21.4991 17.6579 21.1448 17.6579 20.8409H17.1579ZM16.696 22.479L16.2699 22.2175L15.338 23.7364L15.7641 23.9979L16.1903 24.2594L17.1222 22.7405L16.696 22.479ZM15.7641 23.9979L15.3379 23.7365C14.9777 24.3241 14.9043 24.98 15.1231 25.5601C15.3414 26.1386 15.8291 26.5856 16.4817 26.8024L16.6393 26.3279L16.7969 25.8534C16.3961 25.7202 16.1585 25.4714 16.0587 25.2071C15.9596 24.9442 15.9753 24.6101 16.1904 24.2592L15.7641 23.9979ZM16.6393 26.3279L16.4835 26.803C20.0773 27.9813 23.9546 27.9813 27.5484 26.803L27.3926 26.3279L27.2369 25.8528C23.8455 26.9647 20.1865 26.9647 16.7951 25.8528L16.6393 26.3279ZM27.3926 26.3279L27.5469 26.8035C28.829 26.3876 29.4011 24.8929 28.6944 23.7371L28.2678 23.9979L27.8412 24.2587C28.2042 24.8524 27.9173 25.632 27.2384 25.8523L27.3926 26.3279ZM28.2678 23.9979L28.694 23.7364L27.7621 22.2175L27.3359 22.479L26.9097 22.7405L27.8416 24.2594L28.2678 23.9979ZM27.3359 22.479L27.767 22.2256C27.6742 22.0678 27.5752 21.8233 27.4994 21.5522C27.4235 21.2805 27.3821 21.0222 27.3821 20.8409H26.8821H26.3821C26.3821 21.1446 26.4461 21.4987 26.5363 21.8214C26.6267 22.1447 26.7546 22.4767 26.9049 22.7324L27.3359 22.479ZM26.8821 20.8409H27.3821V18.5427H26.8821H26.3821V20.8409H26.8821ZM26.8821 18.5427H27.3821C27.3821 15.6335 24.9614 13.2713 22.02 13.2713V13.7713V14.2713C24.427 14.2713 26.3821 16.2034 26.3821 18.5427H26.8821ZM23.5192 14.002L23.6562 13.5211C23.3836 13.4434 23.098 13.3818 22.8003 13.3464L22.7413 13.8429L22.6822 14.3394C22.9193 14.3676 23.1524 14.4174 23.3822 14.4828L23.5192 14.002ZM22.7413 13.8429L22.8021 13.3467C21.9617 13.2436 21.1486 13.303 20.3837 13.5212L20.5209 14.002L20.6581 14.4828C21.287 14.3034 21.965 14.2515 22.6804 14.3392L22.7413 13.8429ZM20.5209 14.002L20.9852 14.1874C21.1448 13.7878 21.5451 13.5 22.02 13.5V13V12.5C21.1336 12.5 20.367 13.0393 20.0566 13.8165L20.5209 14.002ZM22.02 13V13.5C22.495 13.5 22.8953 13.7878 23.0548 14.1874L23.5192 14.002L23.9835 13.8165C23.6731 13.0393 22.9065 12.5 22.02 12.5V13ZM24.4511 26.6143H23.9511C23.9511 27.6415 23.0899 28.5 22.02 28.5V29V29.5C23.6243 29.5 24.9511 28.2114 24.9511 26.6143H24.4511ZM22.02 29V28.5C21.4908 28.5 20.9995 28.2841 20.6523 27.9433L20.3021 28.3002L19.9519 28.6571C20.4799 29.1752 21.2203 29.5 22.02 29.5V29ZM20.3021 28.3002L20.6523 27.9433C20.3053 27.6028 20.089 27.125 20.089 26.6143H19.589H19.089C19.089 27.4079 19.4238 28.1388 19.9519 28.6571L20.3021 28.3002Z" fill="#1E252D"/>
</g>
<defs>
<filter id="filter0_dd_2_513" x="0" y="0" width="44" height="44" filterUnits="userSpaceOnUse" color-interpolation-filters="sRGB">
<feFlood flood-opacity="0" result="BackgroundImageFix"/>
<feColorMatrix in="SourceAlpha" type="matrix" values="0 0 0 0 0 0 0 0 0 0 0 0 0 0 0 0 0 0 127 0" result="hardAlpha"/>
<feOffset dy="1"/>
<feGaussianBlur stdDeviation="2"/>
<feComposite in2="hardAlpha" operator="out"/>
<feColorMatrix type="matrix" values="0 0 0 0 0.0470588 0 0 0 0 0.0470588 0 0 0 0 0.0509804 0 0 0 0.05 0"/>
<feBlend mode="normal" in2="BackgroundImageFix" result="effect1_dropShadow_2_513"/>
<feColorMatrix in="SourceAlpha" type="matrix" values="0 0 0 0 0 0 0 0 0 0 0 0 0 0 0 0 0 0 127 0" result="hardAlpha"/>
<feOffset dy="1"/>
<feGaussianBlur stdDeviation="2"/>
<feComposite in2="hardAlpha" operator="out"/>
<feColorMatrix type="matrix" values="0 0 0 0 0.0470588 0 0 0 0 0.0470588 0 0 0 0 0.0509804 0 0 0 0.1 0"/>
<feBlend mode="normal" in2="effect1_dropShadow_2_513" result="effect2_dropShadow_2_513"/>
<feBlend mode="normal" in="SourceGraphic" in2="effect2_dropShadow_2_513" result="shape"/>
</filter>
</defs>
</svg>
